<svg width="173" height="154" viewBox="0 0 173 154" fill="none" xmlns="http://www.w3.org/2000/svg">
  <path d="M0 130.779C0 138.827 6.26437 144.949 14.2516 144.949C19.2994 144.949 23.7595 142.476 26.3542 138.259L23.1715 136.05C21.0225 139.212 17.9006 140.915 14.2516 140.915C8.57545 140.915 4.46008 136.678 4.46008 130.779C4.46008 124.9 8.49428 120.642 14.1504 120.642C17.779 120.642 20.7388 122.305 22.9484 125.629L26.2529 123.318C23.5971 119.061 19.1574 116.608 14.1504 116.608C6.18321 116.608 0 122.751 0 130.779ZM27.1369 139.009C27.1369 142.82 30.4412 144.949 34.6578 144.949C37.2729 144.949 39.5231 143.854 40.7194 142.03V144.544H44.6521V132.36C44.6521 127.636 41.1854 124.677 35.7121 124.677C32.1643 124.677 29.0424 126.724 27.5421 128.63L30.0763 131.143C31.2319 129.826 33.2387 128.447 35.6513 128.447C38.6716 128.447 40.6382 130.272 40.6382 132.705V133.759C39.7462 133.333 38.0636 132.846 35.7321 132.846C30.6236 132.846 27.1369 135.36 27.1369 139.009ZM31.1912 138.867C31.1912 136.759 33.2995 135.908 35.8337 135.908C37.942 135.908 39.807 136.414 40.6382 136.84C40.6382 139.496 38.4083 141.665 35.2457 141.665C32.955 141.665 31.1912 140.631 31.1912 138.867ZM52.53 144.544V133.941C52.53 129.542 55.3275 128.407 57.4765 128.407C58.7537 128.407 59.6253 128.772 59.8484 128.853L60.274 125.163C60.274 125.163 59.1185 124.677 57.5981 124.677C55.4695 124.677 53.6247 125.609 52.53 127.738V125.082H48.4958V144.544H52.53ZM59.8401 134.833C59.8401 140.611 64.1582 144.949 70.0372 144.949C73.4834 144.949 77.0312 143.246 78.8355 140.003L75.8756 137.854C74.4161 140.145 72.4698 141.178 70.0372 141.178C66.6721 141.178 64.1786 138.887 63.9959 135.968H79.099C79.2206 135.34 79.2611 134.711 79.2611 134.103C79.2611 128.893 75.5716 124.677 69.8952 124.677C63.9959 124.677 59.8401 129.035 59.8401 134.833ZM64.0974 132.968C64.6042 130.231 66.8748 128.305 69.8547 128.305C72.6522 128.305 74.9432 130.231 75.1864 132.968H64.0974ZM89.9081 117.034V144.544H100.977C109.147 144.544 115.127 138.705 115.127 130.799C115.127 122.913 109.147 117.034 100.977 117.034H89.9081ZM94.1655 140.692V120.845H100.916C106.775 120.845 110.667 125.244 110.667 130.799C110.667 136.374 106.775 140.692 100.916 140.692H94.1655ZM150.093 116H146.079V144.544H150.093V116ZM159.978 144.827L159.552 145.942C158.68 148.213 157.626 149.53 155.011 149.53C153.997 149.53 152.943 149.267 152.396 149.024L151.97 152.348C152.315 152.531 153.47 153.058 155.194 153.058C159.937 153.058 161.62 150.625 163.181 147.017L172.506 125.082H168.087L162.066 140.408L156.004 125.082H151.585L159.978 144.827Z"
    fill="url(#paint0_linear_3209_97283)"/>
  <path d="M116.619 139.009C116.619 142.82 119.923 144.949 124.14 144.949C126.755 144.949 129.006 143.854 130.202 142.03V144.544H134.135V132.36C134.135 127.636 130.668 124.677 125.194 124.677C121.647 124.677 118.525 126.724 117.025 128.63L119.559 131.143C120.714 129.826 122.721 128.447 125.134 128.447C128.154 128.447 130.12 130.272 130.12 132.704V133.758C129.229 133.333 127.546 132.846 125.215 132.846C120.106 132.846 116.619 135.36 116.619 139.009ZM120.674 138.867C120.674 136.759 122.782 135.908 125.316 135.908C127.424 135.908 129.289 136.414 130.12 136.84C130.12 139.496 127.891 141.665 124.728 141.665C122.437 141.665 120.674 140.631 120.674 138.867ZM137.512 118.554C137.512 120.014 138.526 121.028 139.985 121.028C141.445 121.028 142.479 120.014 142.479 118.554C142.479 117.095 141.445 116.081 139.985 116.081C138.526 116.081 137.512 117.095 137.512 118.554ZM141.992 144.544V125.082H137.978V144.544H141.992Z"
    fill="url(#paint1_linear_3209_97283)"/>
  <path fill-rule="evenodd"
    clip-rule="evenodd"
    d="M108.159 27.7818L133.693 0C136.639 0 138.112 2.50735 138.112 7.51731C138.112 11.986 134.511 16.9957 127.31 22.5522C123.489 25.3865 116.724 30.5061 107.014 37.9137C99.592 43.6896 95.8839 48.3727 95.8839 51.9682C95.8839 54.0388 99.2106 60.3306 105.869 70.8431C112.522 81.3583 115.852 88.3038 115.852 91.6793C115.852 96.8016 111.978 100.56 104.232 102.955C100.958 93.1501 98.0653 85.2523 95.5565 79.2594C90.4264 66.9492 86.1169 60.7927 82.626 60.7927C80.0071 60.7927 76.0228 63.8979 70.6779 70.1077C67.949 73.3762 62.985 79.2057 55.7832 87.594C50.4354 93.8038 46.7808 96.909 44.8167 96.909C42.1982 96.909 40.8887 93.8601 40.8887 87.7572C40.8887 85.1426 42.2516 82.9646 44.9804 81.2205L46.9447 81.5475C49.6709 81.5475 55.264 76.9459 63.7215 67.7382C72.1764 58.5331 76.4063 52.4585 76.4063 49.5169C76.4063 45.4874 74.3323 40.5284 70.1866 34.6453C68.5499 32.2502 64.7854 27.5109 58.893 20.4278C54.7448 15.4179 52.6732 11.986 52.6732 10.1323C52.6732 8.0639 53.2462 6.23799 54.3919 4.65752C55.5378 3.07943 57.0926 2.288 59.0566 2.288C62.2202 2.288 65.9312 5.61256 70.1866 12.2567C72.5857 16.2885 76.2426 22.3889 81.1529 30.5598C85.0813 37.2065 88.1909 40.5284 90.4825 40.5284C94.4112 40.5284 100.303 36.2797 108.159 27.7818ZM80.0564 14.6045C80.0564 6.95798 86.2649 0.758815 93.924 0.758815C101.583 0.758815 107.791 6.95798 107.791 14.6045C107.791 22.2514 101.583 28.4505 93.924 28.4505C86.2649 28.4505 80.0564 22.2514 80.0564 14.6045Z"
    fill="#6B50EF"/>
  <defs>
    <linearGradient id="paint0_linear_3209_97283"
      x1="85.6918"
      y1="114.544"
      x2="85.6918"
      y2="153.919"
      gradientUnits="userSpaceOnUse">
      <stop stop-color="#496485"/>
      <stop offset="1" stop-color="#365276"/>
    </linearGradient>
    <linearGradient id="paint1_linear_3209_97283"
      x1="85.6918"
      y1="114.544"
      x2="85.6918"
      y2="153.919"
      gradientUnits="userSpaceOnUse">
      <stop stop-color="#7B61FF"/>
      <stop offset="1" stop-color="#573DDC"/>
    </linearGradient>
  </defs>
</svg>
