<svg width="175" height="156" viewBox="0 0 175 156" fill="none" xmlns="http://www.w3.org/2000/svg">
  <path d="M0 132.67C0 140.834 6.35494 147.045 14.4577 147.045C19.5784 147.045 24.103 144.536 26.7352 140.258L23.5065 138.017C21.3264 141.225 18.1594 142.952 14.4577 142.952C8.69943 142.952 4.52457 138.654 4.52457 132.67C4.52457 126.706 8.61709 122.387 14.3549 122.387C18.0361 122.387 21.0387 124.073 23.2802 127.446L26.6325 125.101C23.9383 120.783 19.4344 118.294 14.3549 118.294C6.2726 118.294 0 124.526 0 132.67ZM27.5292 141.019C27.5292 144.885 30.8813 147.045 35.1588 147.045C37.8117 147.045 40.0946 145.934 41.3081 144.083V146.633H45.2976V134.274C45.2976 129.482 41.7809 126.479 36.2284 126.479C32.6293 126.479 29.4623 128.556 27.9403 130.489L30.5112 133.04C31.6834 131.703 33.7192 130.304 36.1667 130.304C39.2307 130.304 41.2258 132.155 41.2258 134.623V135.693C40.3209 135.261 38.6139 134.767 36.2488 134.767C31.0663 134.767 27.5292 137.317 27.5292 141.019ZM31.6421 140.875C31.6421 138.736 33.7809 137.873 36.3517 137.873C38.4905 137.873 40.3826 138.387 41.2258 138.819C41.2258 141.513 38.9636 143.713 35.7553 143.713C33.4315 143.713 31.6421 142.664 31.6421 140.875ZM53.2895 146.633V135.878C53.2895 131.415 56.1274 130.263 58.3075 130.263C59.6031 130.263 60.4873 130.633 60.7137 130.716L61.1455 126.973C61.1455 126.973 59.9732 126.479 58.4309 126.479C56.2714 126.479 54.4 127.425 53.2895 129.585V126.891H49.197V146.633H53.2895ZM60.7053 136.783C60.7053 142.644 65.0858 147.045 71.0498 147.045C74.5458 147.045 78.1449 145.317 79.9753 142.027L76.9726 139.847C75.492 142.171 73.5176 143.22 71.0498 143.22C67.636 143.22 65.1065 140.896 64.9212 137.934H80.2426C80.366 137.297 80.407 136.659 80.407 136.042C80.407 130.757 76.6642 126.479 70.9057 126.479C64.9212 126.479 60.7053 130.901 60.7053 136.783ZM65.0241 134.891C65.5382 132.114 67.8417 130.16 70.8647 130.16C73.7026 130.16 76.0268 132.114 76.2735 134.891H65.0241ZM91.208 118.726V146.633H102.437C110.725 146.633 116.792 140.711 116.792 132.69C116.792 124.69 110.725 118.726 102.437 118.726H91.208ZM95.5269 142.726V122.592H102.375C108.319 122.592 112.267 127.055 112.267 132.69C112.267 138.346 108.319 142.726 102.375 142.726H95.5269ZM152.263 117.677H148.191V146.633H152.263V117.677ZM162.291 146.921L161.859 148.052C160.974 150.356 159.905 151.693 157.252 151.693C156.224 151.693 155.154 151.425 154.599 151.178L154.167 154.551C154.517 154.736 155.689 155.271 157.437 155.271C162.25 155.271 163.956 152.803 165.54 149.142L175 126.891H170.517L164.409 142.438L158.26 126.891H153.777L162.291 146.921Z"
    fill="white"/>
  <path d="M118.305 141.019C118.305 144.885 121.657 147.045 125.935 147.045C128.588 147.045 130.871 145.934 132.084 144.083V146.633H136.074V134.273C136.074 129.482 132.557 126.479 127.004 126.479C123.405 126.479 120.238 128.556 118.717 130.489L121.287 133.039C122.459 131.703 124.495 130.304 126.943 130.304C130.007 130.304 132.002 132.155 132.002 134.623V135.692C131.097 135.261 129.39 134.767 127.025 134.767C121.842 134.767 118.305 137.317 118.305 141.019ZM122.418 140.875C122.418 138.736 124.557 137.872 127.128 137.872C129.266 137.872 131.159 138.387 132.002 138.818C132.002 141.512 129.74 143.713 126.531 143.713C124.207 143.713 122.418 142.664 122.418 140.875ZM139.5 120.268C139.5 121.749 140.528 122.777 142.009 122.777C143.49 122.777 144.539 121.749 144.539 120.268C144.539 118.788 143.49 117.759 142.009 117.759C140.528 117.759 139.5 118.788 139.5 120.268ZM144.045 146.633V126.89H139.973V146.633H144.045Z"
    fill="white"/>
  <path fill-rule="evenodd"
    clip-rule="evenodd"
    d="M109.723 28.1835L135.626 0C138.615 0 140.109 2.5436 140.109 7.62599C140.109 12.1593 136.456 17.2414 129.15 22.8783C125.275 25.7535 118.412 30.9472 108.561 38.4619C101.032 44.3213 97.2703 49.072 97.2703 52.7195C97.2703 54.8202 100.645 61.2029 107.399 71.8673C114.149 82.5346 117.527 89.5806 117.527 93.0048C117.527 98.2012 113.597 102.014 105.739 104.444C102.418 94.4969 99.4833 86.4849 96.9382 80.4054C91.7339 67.9171 87.3621 61.6716 83.8207 61.6716C81.164 61.6716 77.1221 64.8217 71.6999 71.1214C68.9315 74.4371 63.8957 80.3509 56.5898 88.8604C51.1648 95.16 47.4573 98.3101 45.4648 98.3101C42.8085 98.3101 41.48 95.2172 41.48 89.026C41.48 86.3737 42.8626 84.1641 45.6309 82.3948L47.6236 82.7265C50.3891 82.7265 56.0631 78.0584 64.643 68.7176C73.2201 59.3793 77.5112 53.2169 77.5112 50.2328C77.5112 46.145 75.4072 41.1144 71.2015 35.1462C69.5411 32.7165 65.7222 27.9087 59.7446 20.7232C55.5364 15.6408 53.4349 12.1593 53.4349 10.2787C53.4349 8.18048 54.0162 6.32818 55.1785 4.72486C56.3409 3.12395 57.9182 2.32108 59.9105 2.32108C63.1199 2.32108 66.8846 5.69371 71.2015 12.4339C73.6353 16.524 77.3451 22.7126 82.3263 31.0017C86.3115 37.7444 89.4661 41.1144 91.7908 41.1144C95.7763 41.1144 101.753 36.8042 109.723 28.1835ZM81.214 14.8156C81.214 7.05858 87.5123 0.769786 95.2821 0.769786C103.052 0.769786 109.35 7.05858 109.35 14.8156C109.35 22.5731 103.052 28.8619 95.2821 28.8619C87.5123 28.8619 81.214 22.5731 81.214 14.8156Z"
    fill="white"/>
</svg>
